<?xml version="1.0" standalone="no"?>
<svg xmlns:xlink="http://www.w3.org/1999/xlink" id="wave" style="transform:rotate(0deg); transition: 0.3s" viewBox="0 0 1440 490" version="1.1" xmlns="http://www.w3.org/2000/svg"><defs><linearGradient id="sw-gradient-0" x1="0" x2="0" y1="1" y2="0"><stop stop-color="rgba(1.53, 255, 207.776, 1)" offset="0%"/><stop stop-color="rgba(250.873, 179.819, 22.75, 1)" offset="100%"/></linearGradient></defs><path style="transform:translate(0, 0px); opacity:1" fill="url(#sw-gradient-0)" d="M0,147L26.7,147C53.3,147,107,147,160,179.7C213.3,212,267,278,320,318.5C373.3,359,427,376,480,392C533.3,408,587,425,640,383.8C693.3,343,747,245,800,236.8C853.3,229,907,310,960,351.2C1013.3,392,1067,392,1120,343C1173.3,294,1227,196,1280,204.2C1333.3,212,1387,327,1440,367.5C1493.3,408,1547,376,1600,375.7C1653.3,376,1707,408,1760,392C1813.3,376,1867,310,1920,310.3C1973.3,310,2027,376,2080,359.3C2133.3,343,2187,245,2240,236.8C2293.3,229,2347,310,2400,334.8C2453.3,359,2507,327,2560,334.8C2613.3,343,2667,392,2720,392C2773.3,392,2827,343,2880,334.8C2933.3,327,2987,359,3040,383.8C3093.3,408,3147,425,3200,416.5C3253.3,408,3307,376,3360,318.5C3413.3,261,3467,180,3520,179.7C3573.3,180,3627,261,3680,277.7C3733.3,294,3787,245,3813,220.5L3840,196L3840,490L3813.3,490C3786.7,490,3733,490,3680,490C3626.7,490,3573,490,3520,490C3466.7,490,3413,490,3360,490C3306.7,490,3253,490,3200,490C3146.7,490,3093,490,3040,490C2986.7,490,2933,490,2880,490C2826.7,490,2773,490,2720,490C2666.7,490,2613,490,2560,490C2506.7,490,2453,490,2400,490C2346.7,490,2293,490,2240,490C2186.7,490,2133,490,2080,490C2026.7,490,1973,490,1920,490C1866.7,490,1813,490,1760,490C1706.7,490,1653,490,1600,490C1546.7,490,1493,490,1440,490C1386.7,490,1333,490,1280,490C1226.7,490,1173,490,1120,490C1066.7,490,1013,490,960,490C906.7,490,853,490,800,490C746.7,490,693,490,640,490C586.7,490,533,490,480,490C426.7,490,373,490,320,490C266.7,490,213,490,160,490C106.7,490,53,490,27,490L0,490Z"/></svg>